<?xml version="1.0" encoding="UTF-8" standalone="no"?>
<!DOCTYPE svg PUBLIC "-//W3C//DTD SVG 1.1//EN" "http://www.w3.org/Graphics/SVG/1.1/DTD/svg11.dtd">
<svg version="1.1" xmlns="http://www.w3.org/2000/svg" xmlns:xlink="http://www.w3.org/1999/xlink" preserveAspectRatio="xMidYMid meet" viewBox="0 0 600 300" width="600" height="300"><defs><path d="M40 131.12L209.78 131.12L209.78 171.12L40 171.12L40 131.12Z" id="dcqtfFwpr0"></path><path d="M400 131.12L560 131.12L560 171.12L400 171.12L400 131.12Z" id="g3nbTUBPNG"></path><path d="M60 171.12L73.73 171.12L73.73 270.03L60 270.03L60 171.12Z" id="a1ZBpHBObx"></path><path d="M133.14 172.2L146.86 172.2L146.86 271.12L133.14 271.12L133.14 172.2Z" id="d2DdAULK"></path><path d="M526.27 171.12L540 171.12L540 270.03L526.27 270.03L526.27 171.12Z" id="b1cDpkzCTT"></path><path d="M460 172.2L473.73 172.2L473.73 271.12L460 271.12L460 172.2Z" id="b3U56kS5q"></path><path d="M206.25 28.88L400 28.88L400 271.12L206.25 271.12L206.25 28.88Z" id="i1Saqs4pY2"></path><path d="M240 51.12L360 51.12L360 111.12L240 111.12L240 51.12Z" id="d1I3smewGo"></path><path d="M225 131.12L260 131.12L260 191.12L225 191.12L225 131.12Z" id="f247FNN1Z8"></path><path d="M280 131.12L320 131.12L320 191.12L280 191.12L280 131.12Z" id="cDjvJRdmj"></path><path d="M340 131.12L375 131.12L375 191.12L340 191.12L340 131.12Z" id="bFmcIVg1J"></path><path d="M220 231.12L380 231.12L380 251.12L220 251.12L220 231.12Z" id="a4ED7Lchxd"></path></defs><g><g><g><use xlink:href="#dcqtfFwpr0" opacity="1" fill="#d2d2d2" fill-opacity="1"></use><g><use xlink:href="#dcqtfFwpr0" opacity="1" fill-opacity="0" stroke="#000000" stroke-width="2" stroke-opacity="1"></use></g></g><g><use xlink:href="#g3nbTUBPNG" opacity="1" fill="#d2d2d2" fill-opacity="1"></use><g><use xlink:href="#g3nbTUBPNG" opacity="1" fill-opacity="0" stroke="#000000" stroke-width="2" stroke-opacity="1"></use></g></g><g><use xlink:href="#a1ZBpHBObx" opacity="1" fill="#d2d2d2" fill-opacity="1"></use><g><use xlink:href="#a1ZBpHBObx" opacity="1" fill-opacity="0" stroke="#000000" stroke-width="2" stroke-opacity="1"></use></g></g><g><use xlink:href="#d2DdAULK" opacity="1" fill="#d2d2d2" fill-opacity="1"></use><g><use xlink:href="#d2DdAULK" opacity="1" fill-opacity="0" stroke="#000000" stroke-width="2" stroke-opacity="1"></use></g></g><g><use xlink:href="#b1cDpkzCTT" opacity="1" fill="#d2d2d2" fill-opacity="1"></use><g><use xlink:href="#b1cDpkzCTT" opacity="1" fill-opacity="0" stroke="#000000" stroke-width="2" stroke-opacity="1"></use></g></g><g><use xlink:href="#b3U56kS5q" opacity="1" fill="#d2d2d2" fill-opacity="1"></use><g><use xlink:href="#b3U56kS5q" opacity="1" fill-opacity="0" stroke="#000000" stroke-width="2" stroke-opacity="1"></use></g></g><g><use xlink:href="#i1Saqs4pY2" opacity="1" fill="#d2d2d2" fill-opacity="1"></use><g><use xlink:href="#i1Saqs4pY2" opacity="1" fill-opacity="0" stroke="#000000" stroke-width="2" stroke-opacity="1"></use></g></g><g><use xlink:href="#d1I3smewGo" opacity="1" fill="#c6f9f7" fill-opacity="1"></use><g><use xlink:href="#d1I3smewGo" opacity="1" fill-opacity="0" stroke="#000000" stroke-width="2" stroke-opacity="1"></use></g></g><g><use xlink:href="#f247FNN1Z8" opacity="1" fill="#ffffff" fill-opacity="1"></use><g><use xlink:href="#f247FNN1Z8" opacity="1" fill-opacity="0" stroke="#000000" stroke-width="2" stroke-opacity="1"></use></g></g><g><use xlink:href="#cDjvJRdmj" opacity="1" fill="#ffffff" fill-opacity="1"></use><g><use xlink:href="#cDjvJRdmj" opacity="1" fill-opacity="0" stroke="#000000" stroke-width="2" stroke-opacity="1"></use></g></g><g><use xlink:href="#bFmcIVg1J" opacity="1" fill="#ffffff" fill-opacity="1"></use><g><use xlink:href="#bFmcIVg1J" opacity="1" fill-opacity="0" stroke="#000000" stroke-width="2" stroke-opacity="1"></use></g></g><g><use xlink:href="#a4ED7Lchxd" opacity="1" fill="#ffffff" fill-opacity="1"></use><g><use xlink:href="#a4ED7Lchxd" opacity="1" fill-opacity="0" stroke="#000000" stroke-width="2" stroke-opacity="1"></use></g></g></g></g></svg>